HIERARCHY
ROOT Hips
{
	OFFSET 0.00000 0.00000 0.00000
	CHANNELS 6 Xposition Yposition Zposition Zrotation Yrotation Xrotation 
	JOINT LHipJoint
	{
		OFFSET 0 0 0
		CHANNELS 3 Zrotation Yrotation Xrotation
		JOINT LeftUpLeg
		{
			OFFSET 1.38280 -1.96574 0.54427
			CHANNELS 3 Zrotation Yrotation Xrotation
			JOINT LeftLeg
			{
				OFFSET 2.72096 -7.47578 0.00000
				CHANNELS 3 Zrotation Yrotation Xrotation
				JOINT LeftFoot
				{
					OFFSET 2.73041 -7.50176 0.00000
					CHANNELS 3 Zrotation Yrotation Xrotation
					JOINT LeftToeBase
					{
						OFFSET 0.16150 -0.44371 2.18031
						CHANNELS 3 Zrotation Yrotation Xrotation
						End Site
						{
							OFFSET 0.00000 -0.00000 1.12127
						}
					}
				}
			}
		}
	}
	JOINT RHipJoint
	{
		OFFSET 0 0 0
		CHANNELS 3 Zrotation Yrotation Xrotation
		JOINT RightUpLeg
		{
			OFFSET -1.57224 -1.96575 0.54427
			CHANNELS 3 Zrotation Yrotation Xrotation
			JOINT RightLeg
			{
				OFFSET -2.95935 -8.13076 0.00000
				CHANNELS 3 Zrotation Yrotation Xrotation
				JOINT RightFoot
				{
					OFFSET -2.52345 -6.93311 0.00000
					CHANNELS 3 Zrotation Yrotation Xrotation
					JOINT RightToeBase
					{
						OFFSET -0.04475 -0.10171 1.86688
						CHANNELS 3 Zrotation Yrotation Xrotation
						End Site
						{
							OFFSET -0.00000 -0.00000 0.95157
						}
					}
				}
			}
		}
	}
	JOINT LowerBack
	{
		OFFSET 0 0 0
		CHANNELS 3 Zrotation Yrotation Xrotation
		JOINT Spine
		{
			OFFSET 0.00669 2.07367 0.09104
			CHANNELS 3 Zrotation Yrotation Xrotation
			JOINT Spine1
			{
				OFFSET -0.00664 2.06198 -0.04732
				CHANNELS 3 Zrotation Yrotation Xrotation
				JOINT Neck
				{
					OFFSET 0 0 0
					CHANNELS 3 Zrotation Yrotation Xrotation
					JOINT Neck1
					{
						OFFSET -0.00021 1.49948 0.16345
						CHANNELS 3 Zrotation Yrotation Xrotation
						JOINT Head
						{
							OFFSET 0.06080 1.50567 -0.26702
							CHANNELS 3 Zrotation Yrotation Xrotation
							End Site
							{
								OFFSET 0.01726 1.56470 -0.11854
							}
						}
					}
				}
				JOINT LeftShoulder
				{
					OFFSET 0 0 0
					CHANNELS 3 Zrotation Yrotation Xrotation
					JOINT LeftArm
					{
						OFFSET 3.14993 0.82932 -0.22488
						CHANNELS 3 Zrotation Yrotation Xrotation
						JOINT LeftForeArm
						{
							OFFSET 5.68236 -0.00000 -0.00000
							CHANNELS 3 Zrotation Yrotation Xrotation
							JOINT LeftHand
							{
								OFFSET 3.17112 -0.00000 0.00000
								CHANNELS 3 Zrotation Yrotation Xrotation
								JOINT LeftFingerBase
								{
									OFFSET 0 0 0
									CHANNELS 3 Zrotation Yrotation Xrotation
									JOINT LeftHandIndex1
									{
										OFFSET 0.63269 -0.00000 0.00000
										CHANNELS 3 Zrotation Yrotation Xrotation
										End Site
										{
											OFFSET 0.51009 -0.00000 0.00000
										}
									}
								}
								JOINT LThumb
								{
									OFFSET 0 0 0
									CHANNELS 3 Zrotation Yrotation Xrotation
									End Site
									{
										OFFSET 0.51788 -0.00000 0.51788
									}
								}
							}
						}
					}
				}
				JOINT RightShoulder
				{
					OFFSET 0 0 0
					CHANNELS 3 Zrotation Yrotation Xrotation
					JOINT RightArm
					{
						OFFSET -3.10571 0.91279 -0.33334
						CHANNELS 3 Zrotation Yrotation Xrotation
						JOINT RightForeArm
						{
							OFFSET -5.87120 -0.00000 -0.00000
							CHANNELS 3 Zrotation Yrotation Xrotation
							JOINT RightHand
							{
								OFFSET -3.37589 -0.00000 0.00000
								CHANNELS 3 Zrotation Yrotation Xrotation
								JOINT RightFingerBase
								{
									OFFSET 0 0 0
									CHANNELS 3 Zrotation Yrotation Xrotation
									JOINT RightHandIndex1
									{
										OFFSET -0.60326 -0.00000 0.00000
										CHANNELS 3 Zrotation Yrotation Xrotation
										End Site
										{
											OFFSET -0.48636 -0.00000 0.00000
										}
									}
								}
								JOINT RThumb
								{
									OFFSET 0 0 0
									CHANNELS 3 Zrotation Yrotation Xrotation
									End Site
									{
										OFFSET -0.49379 -0.00000 0.49379
									}
								}
							}
						}
					}
				}
			}
		}
	}
}
MOTION
Frames: 14
Frame Time: 0.0115607
0.00 0.00 0.00 -214.2990 264.3770 244.6210 0.0000 0.0000 0.0000 -4.8517 -11.2838 -77.9130 17.4950 19.8489 82.6580 2.2923 -11.2203 -27.2608 1.0306 -6.4575 -18.1177 0.0000 0.0000 0.0000 9.4299 24.7555 -70.4502 -17.7349 -19.8765 83.3643 -0.6623 14.7741 -16.6693 -3.8751 11.9923 -35.7049 0.4192 1.2331 1.9209 2.1718 1.6407 0.5934 1.9515 0.8093 -0.5205 -3.2522 -2.4442 -25.1455 2.9586 -2.8082 2.1286 1.1498 -1.3211 4.6019 0.0000 0.0000 0.0000 -77.6786 -76.6803 40.3048 53.5701 -54.3377 -29.0507 -0.0000 0.0000 -43.5056 30.3063 28.8856 15.7671 -7.1250 0.0000 -0.0000 -0.5092 62.5590 -0.2173 0.0000 0.0000 0.0000 70.1018 73.4686 10.7503 -48.3655 52.3146 -24.8747 0.0000 -0.0000 -32.3491 -33.5590 28.4303 -17.5273 7.1250 -0.0000 -0.0000 -1.7240 3.0175 -1.8131
0.00 0.00 0.00 -212.2530 264.8640 241.0920 0.0000 0.0000 0.0000 -7.0677 -10.1215 -72.7664 15.7487 19.5610 77.4821 2.0038 -11.8653 -25.5460 0.8318 -5.8184 -16.2585 0.0000 0.0000 0.0000 9.9907 24.4377 -65.6384 -16.1728 -19.6451 78.7460 -0.4276 14.1265 -14.3484 -3.5310 11.5087 -34.0152 0.3359 1.2750 1.5961 1.8523 1.7064 0.0760 1.6691 0.8483 -0.8632 -3.0414 -2.4439 -24.4751 2.6999 -2.8122 4.1860 1.0307 -1.3019 5.1612 -0.0000 -0.0000 0.0000 -41.4765 -83.5649 6.2526 65.4267 -57.5906 -38.8911 -0.0000 0.0000 -43.3057 27.8570 29.1513 14.4371 -7.1250 0.0000 -0.0000 -3.6328 62.1905 -1.5195 -0.0000 -0.0000 0.0000 37.7011 79.7916 -17.2406 -58.6539 55.9405 -33.2235 0.0000 -0.0000 -34.5458 -32.2432 28.0756 -16.5346 7.1250 -0.0000 -0.0000 -1.0368 2.2533 -1.0769
0.00 0.00 0.00 -206.5400 265.2910 234.8130 0.0000 0.0000 0.0000 -8.9158 -9.4292 -69.4212 14.3454 19.2155 73.2566 1.6903 -11.6409 -23.4976 0.7723 -5.6113 -15.6606 0.0000 0.0000 0.0000 10.0833 23.8497 -62.6026 -14.8598 -19.3544 74.8139 -0.2700 12.9718 -12.2369 -3.2191 11.0416 -32.4203 -0.0249 1.2680 1.7830 1.6957 1.7091 -0.8236 1.6943 0.8599 -1.8961 -2.8645 -2.3315 -24.1078 2.2018 -2.6338 6.1911 0.8588 -1.2232 5.7409 0.0000 0.0000 0.0000 2.1255 -83.2258 -36.7679 74.5175 -59.0746 -46.6334 -0.0000 0.0000 -43.4152 26.8435 28.9082 13.7472 -7.1250 0.0000 -0.0000 -4.7250 61.6723 -1.9195 0.0000 0.0000 0.0000 10.0204 80.5146 -43.1763 -67.3398 57.9680 -40.5095 0.0000 -0.0000 -34.4528 -30.5484 27.4374 -15.2134 7.1250 -0.0000 -0.0000 -0.1700 1.1041 -0.1732
0.00 0.00 0.00 -201.6580 265.2870 228.7200 0.0000 0.0000 0.0000 -10.4013 -8.5702 -63.1786 11.8470 18.3252 65.5031 0.9313 -12.3710 -18.0759 0.1314 -2.3367 -6.4370 0.0000 0.0000 0.0000 11.4796 22.5898 -56.6182 -12.4185 -18.5620 67.3093 -0.0910 10.6918 -8.8422 -3.1361 10.9122 -31.9845 0.4019 1.2261 0.9678 1.5459 1.6556 -1.2332 1.3168 0.8273 -1.8402 -2.3984 -2.1168 -24.1988 1.7920 -2.4084 8.9770 0.6705 -1.1060 6.6498 0.0000 -0.0000 0.0000 39.7408 -78.8732 -75.5827 86.6068 -59.9564 -57.0618 -0.0000 0.0000 -43.4091 24.7876 29.4355 12.7867 -7.1250 0.0000 -0.0000 -7.4265 61.6917 -3.0258 0.0000 -0.0000 0.0000 -29.9820 77.3510 -81.7699 -78.7171 59.5135 -50.2446 0.0000 -0.0000 -33.8530 -28.8875 26.9722 -14.0497 7.1250 -0.0000 -0.0000 0.7259 0.1849 0.7283
0.00 0.00 0.00 -192.4470 265.3290 217.5200 0.0000 0.0000 0.0000 -13.3905 -6.8276 -52.4684 7.7165 15.9067 51.5349 0.2486 -6.3386 -9.2884 0.0200 -0.9129 -2.5092 0.0000 0.0000 0.0000 13.4139 19.2973 -46.8653 -8.3052 -16.3392 53.6546 0.0662 4.8418 0.0308 -1.4176 7.5298 -21.2948 0.8801 1.1216 -0.6514 1.5391 1.4934 -1.6110 1.0758 0.7377 -1.3031 -1.8196 -1.7374 -22.6722 1.0256 -1.9709 12.6335 0.3812 -0.9280 7.6005 0.0000 0.0000 0.0000 47.7950 -73.4677 -87.4555 101.2960 -59.5123 -69.7666 -0.0000 0.0000 -45.2789 23.8662 28.9657 12.0936 -7.1250 0.0000 -0.0000 -8.2261 60.9789 -3.2150 0.0000 0.0000 0.0000 -49.4378 72.1993 -99.8054 -93.1670 59.9621 -62.7423 0.0000 -0.0000 -34.8438 -27.2250 26.2356 -12.8131 7.1250 -0.0000 -0.0000 1.5965 -0.9930 1.5693
0.00 0.00 0.00 -184.8690 265.4890 208.2260 0.0000 0.0000 0.0000 -14.6649 -6.5073 -43.3060 4.7350 13.0790 39.6650 -0.0438 3.9536 -2.8965 0.0742 -1.7574 -4.8356 0.0000 0.0000 0.0000 13.9433 17.5482 -38.2416 -5.0351 -13.4232 40.9741 -0.0828 -6.4710 6.4193 -0.1064 2.1032 -5.7909 1.0427 1.1541 -2.3217 1.5614 1.4984 -2.0599 1.0383 0.7342 -0.8243 -1.0991 -1.3847 -19.3929 -0.0416 -1.5823 15.2787 -0.0302 -0.8257 7.9174 0.0000 0.0000 0.0000 43.5689 -72.5647 -86.7740 110.9064 -58.2823 -78.0011 -0.0000 0.0000 -47.3221 23.9097 29.4733 12.3053 -7.1250 0.0000 -0.0000 -8.4677 61.5075 -3.4163 0.0000 0.0000 0.0000 -51.8480 70.4387 -100.9686 -103.2155 59.3297 -71.4192 0.0000 -0.0000 -34.8970 -27.4010 25.7798 -12.7048 7.1250 -0.0000 -0.0000 1.4227 -1.4404 1.3870
0.00 0.00 0.00 -176.1980 265.8130 197.9690 0.0000 0.0000 0.0000 -12.9990 -13.0579 -33.3836 2.7541 10.2860 29.9079 -0.8778 16.8369 -10.7778 0.6711 5.2385 14.5901 0.0000 0.0000 0.0000 12.3853 21.0726 -29.6151 -2.7049 -10.2013 29.6310 1.1624 -20.8636 2.2346 -0.0030 0.3535 -0.9713 0.9736 1.1411 -3.6856 1.6370 1.4463 -2.8967 1.1733 0.6997 -0.9241 -0.7361 -1.1403 -16.6318 -1.0107 -1.2786 19.6281 -0.3879 -0.8116 8.8914 -0.0000 -0.0000 0.0000 33.8342 -72.4236 -80.2063 117.7090 -56.8901 -83.7462 -0.0000 0.0000 -48.9828 23.3101 29.1838 11.8654 -7.1250 0.0000 -0.0000 -8.9872 61.0629 -3.5330 -0.0000 -0.0000 0.0000 -51.1971 70.0030 -98.6801 -109.3425 58.5380 -76.6688 0.0000 -0.0000 -34.5402 -27.4002 25.6444 -12.6442 7.1250 -0.0000 -0.0000 1.4031 -1.5855 1.3641
0.00 0.00 0.00 -200.2370 266.5300 222.4860 0.0000 0.0000 0.0000 -15.5909 -2.4544 -42.3128 6.9858 15.3199 48.8204 -1.1157 20.9787 3.2076 0.5251 -4.6437 -12.8952 0.0000 0.0000 0.0000 19.0653 12.1591 -35.1445 -4.7726 -13.1230 39.8308 -0.2850 -12.5009 12.1630 -3.4777 11.4308 -33.7470 1.6551 0.4177 -5.8804 1.8861 0.3776 -1.9777 1.0345 0.1673 1.2596 -0.3182 -0.8748 -19.0050 -0.7977 -1.1121 22.9695 -0.4058 -0.7062 10.5118 -0.0000 0.0000 0.0000 34.2640 -62.8638 -86.4234 124.6944 -54.9234 -89.5341 -0.0000 0.0000 -51.7022 23.6087 29.5244 12.1550 -7.1250 0.0000 -0.0000 -8.8450 61.4836 -3.5648 -0.0000 0.0000 0.0000 -59.7964 57.2125 -105.8476 -118.0868 56.7986 -84.0625 0.0000 -0.0000 -34.1814 -31.9253 26.2663 -15.4152 7.1250 -0.0000 -0.0000 -1.1903 0.1904 -1.1945
0.00 0.00 0.00 -148.0980 269.2950 169.8480 0.0000 0.0000 0.0000 -14.5041 -7.7010 -40.9104 4.8757 13.2424 40.2829 -0.3799 11.3542 -0.5930 0.3842 -3.9807 -11.0224 0.0000 0.0000 0.0000 12.5139 14.7436 -38.5578 -3.9666 -12.1159 36.1432 -0.1785 -8.2973 8.8888 -2.3199 9.5028 -27.3811 0.5153 0.0501 -7.0337 1.1301 -0.0346 -0.5729 0.8731 -0.0261 3.3528 0.2464 -0.2631 -18.9002 -2.0656 -0.1385 24.2875 -0.8294 -0.3961 10.9801 -0.0000 -0.0000 0.0000 14.1001 -70.4675 -62.0458 128.7130 -53.5016 -92.7946 -0.0000 0.0000 -48.6088 23.7035 29.1903 12.0860 -7.1250 0.0000 -0.0000 -8.5407 61.1675 -3.3772 -0.0000 -0.0000 0.0000 -41.1429 64.5603 -83.3285 -122.9490 55.4715 -88.1008 0.0000 -0.0000 -30.3995 -33.3105 24.9497 -15.4932 7.1250 -0.0000 -0.0000 -2.2519 -0.8948 -2.2181
0.00 0.00 0.00 -118.1000 268.1850 139.2790 0.0000 0.0000 0.0000 -16.4156 -6.7141 -43.4734 6.4864 14.8836 46.9038 0.3769 -7.6013 -11.3946 0.0064 -0.5186 -1.4251 0.0000 0.0000 0.0000 11.6399 11.3801 -41.3141 -6.3635 -14.7716 46.4238 0.1299 10.9928 -5.5393 -0.1243 2.2724 -6.2591 -0.3806 -0.2196 -6.8524 0.9921 -0.3196 -1.0338 1.2067 -0.1776 2.7825 -1.1226 -0.6497 -19.6813 -0.7501 -0.5142 21.9811 -0.1641 -0.4801 10.2861 0.0000 0.0000 0.0000 -2.2624 -70.8897 -44.1680 131.8399 -52.2260 -95.2877 -0.0000 0.0000 -47.6461 23.0361 29.8098 11.9358 -7.1250 0.0000 -0.0000 -9.6770 61.6281 -3.9367 0.0000 0.0000 0.0000 -18.8728 69.6766 -62.7928 -127.5592 53.9337 -91.8645 0.0000 -0.0000 -30.3807 -32.3539 23.4872 -14.1696 7.1250 -0.0000 -0.0000 -1.9337 -2.7719 -1.8390
0.00 0.00 0.00 -2.2426 269.4030 28.4018 0.0000 0.0000 0.0000 -12.7507 -8.0898 -57.3770 10.4229 17.6409 60.8928 1.2022 -12.9430 -20.2997 0.0030 -0.3514 -0.9655 0.0000 0.0000 0.0000 10.0156 16.3743 -54.1669 -10.1898 -17.5152 60.1207 0.1396 17.9106 -11.2543 -0.0124 0.7178 -1.9727 -0.3846 0.4557 -8.2658 1.5520 0.5412 -1.4579 1.8786 0.2402 3.1057 -1.9057 -0.9105 -21.8800 -0.0343 -0.6698 19.1783 0.2004 -0.4756 9.6920 -0.0000 -0.0000 0.0000 -10.5265 -70.3504 -36.9649 135.9883 -50.2750 -98.5241 -0.0000 0.0000 -47.1161 21.1711 29.5399 10.8104 -7.1250 0.0000 -0.0000 -11.6251 60.8933 -4.5374 -0.0000 -0.0000 0.0000 -6.2810 69.6443 -51.5414 -134.0736 51.2144 -97.0413 0.0000 -0.0000 -31.5800 -30.2845 23.2162 -12.9642 7.1250 -0.0000 -0.0000 -0.7154 -3.5669 -0.6695
0.00 0.00 0.00 1.9625 267.4600 23.6851 0.0000 0.0000 0.0000 -11.6218 -8.0108 -62.1356 13.2986 18.8873 70.0505 1.4639 -13.1409 -22.1966 0.0317 -1.1490 -3.1589 0.0000 0.0000 0.0000 7.6126 19.9447 -58.6585 -12.9225 -18.7540 68.8845 0.0709 17.9862 -11.9816 -0.0685 1.6888 -4.6463 -0.2425 0.9591 -4.2497 0.3327 1.2784 -0.1890 0.5546 0.6320 2.1746 -0.8519 -0.8388 -23.9082 0.5018 -0.9809 17.6670 0.1680 -0.4579 9.5134 -0.0000 0.0000 0.0000 -27.5986 -68.5155 -19.2366 139.9151 -48.1201 -101.4976 -0.0000 0.0000 -47.1837 19.5985 29.8393 10.0464 -7.1250 0.0000 -0.0000 -13.5737 60.8055 -5.2847 -0.0000 0.0000 0.0000 25.9285 69.2651 -21.7511 -141.1843 47.3524 -102.4369 0.0000 -0.0000 -31.3380 -28.3663 24.3366 -12.5443 7.1250 -0.0000 -0.0000 0.6250 -2.7778 0.5940
0.00 0.00 0.00 10.1116 268.2910 17.0309 0.0000 0.0000 0.0000 -8.4404 -11.0924 -66.6596 14.5958 19.2849 74.0162 1.2812 -10.3187 -20.4293 0.5222 -4.6314 -12.8603 0.0000 0.0000 0.0000 6.6461 21.7767 -61.4121 -13.3082 -18.8906 70.0801 -0.2970 18.3511 -15.4442 -0.0029 0.3484 -0.9574 -0.2573 0.6848 -3.2789 0.7987 0.8942 1.5702 1.0213 0.4274 3.4367 -2.2661 -1.1306 -23.8399 1.2453 -1.0337 14.7271 0.6465 -0.4814 8.4917 -0.0000 -0.0000 0.0000 -56.6123 -61.1164 9.8724 137.6038 -49.4272 -99.7590 -0.0000 0.0000 -44.6845 17.8611 28.7740 8.8170 -7.1250 0.0000 -0.0000 -14.7699 59.3516 -5.2481 -0.0000 -0.0000 0.0000 61.4101 58.5530 15.3311 -140.1780 47.9641 -101.6931 0.0000 -0.0000 -24.8521 -25.2620 27.9648 -12.4774 7.1250 -0.0000 -0.0000 3.0181 0.3986 3.0433
0.00 0.00 0.00 5.4319 266.9060 24.8973 0.0000 0.0000 0.0000 -9.8144 -10.9951 -65.3520 11.6072 18.2196 64.7383 1.7313 -8.4672 -23.5759 0.2300 -3.0870 -8.5210 0.0000 0.0000 0.0000 5.0624 23.0671 -62.2126 -10.9907 -17.9305 62.7513 -0.2594 14.7917 -13.0908 -0.0000 0.0157 -0.0432 -0.5116 0.9752 -2.1848 0.6921 1.2930 1.5858 1.0564 0.6242 2.8250 -2.8336 -1.3411 -24.2257 0.9691 -1.0657 13.4659 0.6366 -0.5565 8.1265 0.0000 -0.0000 0.0000 -70.1570 -47.6946 24.4003 129.3662 -53.2479 -93.3189 -0.0000 0.0000 -45.3223 21.5877 29.1327 10.9033 -7.1250 0.0000 -0.0000 -10.9053 60.5879 -4.1732 0.0000 -0.0000 0.0000 77.2323 41.7879 30.4629 -127.0215 54.1284 -91.4293 0.0000 -0.0000 -28.3825 -29.2401 25.2342 -13.4227 7.1250 -0.0000 -0.0000 0.2341 -1.6058 0.2274
